<svg width="787" height="712" viewBox="0 0 787 712" fill="none" xmlns="http://www.w3.org/2000/svg">
<path d="M599.309 48.0016C625.054 25.1362 655.107 3.98167 689.911 0.406558C724.716 -3.16855 764.124 17.1087 769.705 50.4362C776.525 91.0126 733.252 128.858 742.789 168.941C749.7 197.926 782.413 216.986 786.584 246.442C789.142 264.559 779.639 282.917 765.306 294.893C750.973 306.868 732.445 313.185 713.849 316.683C641.103 330.359 547.898 297.547 510.047 233.337C470.048 165.476 551.785 90.1791 599.309 48.0016Z" fill="#FF6551"/>
<path d="M522.561 51.6529C579.201 61.161 636.352 81.164 675.771 121.532C717.827 164.62 734.479 225.353 740.981 284.222C747.335 341.796 745.334 400.873 728.023 456.299C710.712 511.724 677.26 563.42 628.759 597.57C558.161 647.348 465.603 654.893 378.217 658.764C328.75 660.957 278.771 662.504 230.088 653.752C181.405 645.001 133.472 625.031 99.884 589.981C66.2958 554.932 49.0641 503.268 63.8406 457.647C81.9134 401.487 142.008 365.298 160.343 309.171C183.44 238.502 136.643 129.242 222.381 86.0661C309.438 42.2436 427.798 35.7185 522.561 51.6529Z" fill="#273D5E"/>
<path d="M1.91564 463.186C-3.64261 495.724 3.38193 529.402 16.6922 559.769C53.5994 643.828 141.724 704.725 236.067 711.437C258.8 713.06 282.533 711.568 302.97 701.742C323.408 691.916 339.9 672.363 340.548 650.353C341.344 623.616 319.418 600.849 295.082 588.04C270.746 575.232 243.114 569.178 218.54 556.797C187.952 541.367 163.73 515.485 149.113 485.514C134.632 455.761 142.963 424.649 132.392 396.125C104.647 321.19 9.46304 419.034 1.91564 463.186Z" fill="#8EC2F2"/>
<path d="M160.888 183.757C193.647 201.578 239.545 191.861 261.573 162.46C299.083 112.408 266.825 8.92759 192.328 38.1426C131.335 62.0717 86.119 143.082 160.888 183.757Z" fill="white"/>
<path d="M277.714 625.985C248.971 622.762 221.291 613.581 196.57 599.07C171.85 584.559 150.674 565.062 134.495 541.915C118.56 518.606 108.037 492.247 103.65 464.647C99.2636 437.046 101.116 408.857 109.08 382.011L113.16 383.163C105.356 409.435 103.537 437.025 107.826 464.039C112.115 491.054 122.411 516.854 138.008 539.667C153.845 562.318 174.573 581.396 198.77 595.593C222.967 609.79 250.06 618.77 278.191 621.917L277.714 625.985Z" fill="white"/>
<path d="M681.476 431.351L677.259 430.912C683.761 373.293 690.49 313.723 681.601 255.369C671.701 190.392 642.398 136.711 599.205 104.206C552.295 68.9482 493.928 61.3045 453.236 61.0961C399.688 60.7781 346.14 72.4027 298.821 82.6236L297.889 78.6208C345.424 68.3561 399.438 56.6876 453.258 57.0056C494.621 57.214 553.966 65.0222 601.819 100.982C645.944 134.145 675.77 188.714 685.83 254.788C694.764 313.635 688.012 373.48 681.476 431.351Z" fill="white"/>
<path d="M712.736 611.235L709.201 608.965C768.898 522.329 790.233 410.141 766.284 308.744L770.421 307.833C794.632 410.261 773.115 523.722 712.736 611.235Z" fill="white"/>
<path d="M4.14306 400.107L0.244298 398.484C12.9521 370.124 40.2091 351.843 66.5682 334.164C69.6751 332.081 72.7592 330.001 75.8206 327.924C100.145 311.354 132.722 285.242 134.79 250.062C136.086 228.019 125.458 208.476 114.205 187.782C107.045 174.622 99.6449 160.991 95.587 146.647C81.7767 97.7136 111.921 42.3323 161.411 25.5424L162.82 29.4136C116.217 45.2384 86.6643 99.4902 99.6904 145.517C103.623 159.434 110.921 172.846 117.968 185.83C128.993 206.107 140.394 227.076 139.03 250.248C136.859 287.249 103.316 314.205 78.2758 331.269C75.2447 333.36 72.1492 335.448 68.9893 337.531C43.119 354.88 16.3621 372.822 4.14306 400.107Z" fill="white"/>
<path d="M513.32 520.574C500.01 534.305 488.507 553.156 494.349 571.087C500.101 588.765 524.187 598.196 541.089 589.401C552.512 583.457 559.162 571.712 568.232 562.763C577.303 553.814 592.784 547.684 602.877 555.569C615.267 565.231 607.322 584.938 595.932 595.685C584.543 606.432 569.403 616.587 568.516 631.929C567.505 649.476 587.68 662.559 605.81 661.375C623.94 660.19 639.614 649.191 653.629 638.027C674.805 621.171 695.185 602.528 708.302 579.268C721.419 556.008 726.489 527.297 716.157 502.765C683.205 424.452 554.365 478.254 513.32 520.574Z" fill="#F3CD03"/>
</svg>
